# Low-poly obstacle mesh for rock_demo. Units are meters; local origin is the
# ground-contact center. Keep world pose in Gazebo/Sionna loader files.
mtllib rock_demo_spire.mtl
o rock_demo_spire
v -28.000 -18.000 0.000
v -14.000 -28.000 0.000
v 14.000 -24.000 0.000
v 30.000 -10.000 0.000
v 24.000 14.000 0.000
v 6.000 28.000 0.000
v -18.000 22.000 0.000
v -32.000 4.000 0.000
v -20.000 -12.000 35.000
v -8.000 -22.000 38.000
v 12.000 -18.000 36.000
v 22.000 -6.000 40.000
v 18.000 10.000 37.000
v 4.000 20.000 39.000
v -14.000 16.000 36.000
v -24.000 2.000 38.000
v -12.000 -8.000 62.000
v -2.000 -13.000 68.000
v 10.000 -8.000 64.000
v 14.000 2.000 70.000
v 8.000 12.000 66.000
v -2.000 16.000 72.000
v -12.000 10.000 64.000
v -16.000 0.000 66.000
v 0.000 0.000 78.000
usemtl basalt_rock
s off
f 3 2 1
f 4 3 1
f 5 4 1
f 6 5 1
f 7 6 1
f 8 7 1
f 1 2 10
f 1 10 9
f 2 3 11
f 2 11 10
f 3 4 12
f 3 12 11
f 4 5 13
f 4 13 12
f 5 6 14
f 5 14 13
f 6 7 15
f 6 15 14
f 7 8 16
f 7 16 15
f 8 1 9
f 8 9 16
f 9 10 18
f 9 18 17
f 10 11 19
f 10 19 18
f 11 12 20
f 11 20 19
f 12 13 21
f 12 21 20
f 13 14 22
f 13 22 21
f 14 15 23
f 14 23 22
f 15 16 24
f 15 24 23
f 16 9 17
f 16 17 24
f 17 18 25
f 18 19 25
f 19 20 25
f 20 21 25
f 21 22 25
f 22 23 25
f 23 24 25
f 24 17 25
