# Deterministic engineering settlement blocks, ENU meters.
o settlement_a_warehouse
v 900.000 680.000 16.178
v 1060.000 680.000 16.178
v 1060.000 760.000 16.178
v 900.000 760.000 16.178
v 900.000 680.000 50.178
v 1060.000 680.000 50.178
v 1060.000 760.000 50.178
v 900.000 760.000 50.178
f 1 2 3
f 1 3 4
f 5 8 7
f 5 7 6
f 1 5 6
f 1 6 2
f 4 3 7
f 4 7 8
f 1 4 8
f 1 8 5
f 2 6 7
f 2 7 3
o settlement_a_tower
v 1185.000 805.000 14.256
v 1255.000 805.000 14.256
v 1255.000 875.000 14.256
v 1185.000 875.000 14.256
v 1185.000 805.000 76.256
v 1255.000 805.000 76.256
v 1255.000 875.000 76.256
v 1185.000 875.000 76.256
f 9 10 11
f 9 11 12
f 13 16 15
f 13 15 14
f 9 13 14
f 9 14 10
f 12 11 15
f 12 15 16
f 9 12 16
f 9 16 13
f 10 14 15
f 10 15 11
o settlement_a_row_1
v 1365.000 605.000 18.197
v 1475.000 605.000 18.197
v 1475.000 695.000 18.197
v 1365.000 695.000 18.197
v 1365.000 605.000 62.197
v 1475.000 605.000 62.197
v 1475.000 695.000 62.197
v 1365.000 695.000 62.197
f 17 18 19
f 17 19 20
f 21 24 23
f 21 23 22
f 17 21 22
f 17 22 18
f 20 19 23
f 20 23 24
f 17 20 24
f 17 24 21
f 18 22 23
f 18 23 19
o settlement_b_block_1
v -1645.000 -875.000 0.000
v -1515.000 -875.000 0.000
v -1515.000 -765.000 0.000
v -1645.000 -765.000 0.000
v -1645.000 -875.000 48.000
v -1515.000 -875.000 48.000
v -1515.000 -765.000 48.000
v -1645.000 -765.000 48.000
f 25 26 27
f 25 27 28
f 29 32 31
f 29 31 30
f 25 29 30
f 25 30 26
f 28 27 31
f 28 31 32
f 25 28 32
f 25 32 29
f 26 30 31
f 26 31 27
o settlement_b_block_2
v -1405.000 -1040.000 0.000
v -1315.000 -1040.000 0.000
v -1315.000 -920.000 0.000
v -1405.000 -920.000 0.000
v -1405.000 -1040.000 58.000
v -1315.000 -1040.000 58.000
v -1315.000 -920.000 58.000
v -1405.000 -920.000 58.000
f 33 34 35
f 33 35 36
f 37 40 39
f 37 39 38
f 33 37 38
f 33 38 34
f 36 35 39
f 36 39 40
f 33 36 40
f 33 40 37
f 34 38 39
f 34 39 35
o settlement_b_mast_house
v -1140.000 -800.000 0.000
v -1060.000 -800.000 0.000
v -1060.000 -720.000 0.000
v -1140.000 -720.000 0.000
v -1140.000 -800.000 72.000
v -1060.000 -800.000 72.000
v -1060.000 -720.000 72.000
v -1140.000 -720.000 72.000
f 41 42 43
f 41 43 44
f 45 48 47
f 45 47 46
f 41 45 46
f 41 46 42
f 44 43 47
f 44 47 48
f 41 44 48
f 41 48 45
f 42 46 47
f 42 47 43
