# Shared Gazebo/Sionna radio-blocker mesh.
# Coordinates are ENU meters in the rock_demo world frame.
o radio_blocker
v 170.000 -140.000 0.000
v 230.000 -140.000 0.000
v 230.000 140.000 0.000
v 170.000 140.000 0.000
v 170.000 -140.000 140.000
v 230.000 -140.000 140.000
v 230.000 140.000 140.000
v 170.000 140.000 140.000
vn 0.000000000 0.000000000 1.000000000
vn 0.000000000 0.000000000 1.000000000
vn 0.000000000 0.000000000 -1.000000000
vn 0.000000000 0.000000000 -1.000000000
vn 0.000000000 1.000000000 0.000000000
vn 0.000000000 1.000000000 0.000000000
vn 0.000000000 -1.000000000 0.000000000
vn 0.000000000 -1.000000000 0.000000000
vn 1.000000000 0.000000000 0.000000000
vn 1.000000000 0.000000000 0.000000000
vn -1.000000000 0.000000000 0.000000000
vn -1.000000000 0.000000000 0.000000000
f 1//1 2//1 3//1
f 1//2 3//2 4//2
f 5//3 8//3 7//3
f 5//4 7//4 6//4
f 1//5 5//5 6//5
f 1//6 6//6 2//6
f 4//7 3//7 7//7
f 4//8 7//8 8//8
f 1//9 4//9 8//9
f 1//10 8//10 5//10
f 2//11 6//11 7//11
f 2//12 7//12 3//12
