# AMS M4 canonical settlement geometry
o canonical_buildings
g west_low_03
v -7660.000000 2950.000000 26.200000
v -7540.000000 2950.000000 26.200000
v -7540.000000 3050.000000 26.200000
v -7660.000000 3050.000000 26.200000
v -7660.000000 2950.000000 38.200000
v -7540.000000 2950.000000 38.200000
v -7540.000000 3050.000000 38.200000
v -7660.000000 3050.000000 38.200000
vn -0.577350269 -0.577350269 -0.577350269
vn 0.577350269 -0.577350269 -0.577350269
vn 0.577350269 0.577350269 -0.577350269
vn -0.577350269 0.577350269 -0.577350269
vn -0.577350269 -0.577350269 0.577350269
vn 0.577350269 -0.577350269 0.577350269
vn 0.577350269 0.577350269 0.577350269
vn -0.577350269 0.577350269 0.577350269
f 1//1 3//3 2//2
f 1//1 4//4 3//3
f 5//5 6//6 7//7
f 5//5 7//7 8//8
f 1//1 2//2 6//6
f 1//1 6//6 5//5
f 2//2 3//3 7//7
f 2//2 7//7 6//6
f 3//3 4//4 8//8
f 3//3 8//8 7//7
f 4//4 1//1 5//5
f 4//4 5//5 8//8
g west_medium_08
v -7270.000000 3140.000000 26.200000
v -7130.000000 3140.000000 26.200000
v -7130.000000 3260.000000 26.200000
v -7270.000000 3260.000000 26.200000
v -7270.000000 3140.000000 58.200000
v -7130.000000 3140.000000 58.200000
v -7130.000000 3260.000000 58.200000
v -7270.000000 3260.000000 58.200000
vn -0.577350269 -0.577350269 -0.577350269
vn 0.577350269 -0.577350269 -0.577350269
vn 0.577350269 0.577350269 -0.577350269
vn -0.577350269 0.577350269 -0.577350269
vn -0.577350269 -0.577350269 0.577350269
vn 0.577350269 -0.577350269 0.577350269
vn 0.577350269 0.577350269 0.577350269
vn -0.577350269 0.577350269 0.577350269
f 9//9 11//11 10//10
f 9//9 12//12 11//11
f 13//13 14//14 15//15
f 13//13 15//15 16//16
f 9//9 10//10 14//14
f 9//9 14//14 13//13
f 10//10 11//11 15//15
f 10//10 15//15 14//14
f 11//11 12//12 16//16
f 11//11 16//16 15//15
f 12//12 9//9 13//13
f 12//12 13//13 16//16
g west_highrise_13
v -6880.000000 3330.000000 26.200000
v -6720.000000 3330.000000 26.200000
v -6720.000000 3470.000000 26.200000
v -6880.000000 3470.000000 26.200000
v -6880.000000 3330.000000 78.200000
v -6720.000000 3330.000000 78.200000
v -6720.000000 3470.000000 78.200000
v -6880.000000 3470.000000 78.200000
vn -0.577350269 -0.577350269 -0.577350269
vn 0.577350269 -0.577350269 -0.577350269
vn 0.577350269 0.577350269 -0.577350269
vn -0.577350269 0.577350269 -0.577350269
vn -0.577350269 -0.577350269 0.577350269
vn 0.577350269 -0.577350269 0.577350269
vn 0.577350269 0.577350269 0.577350269
vn -0.577350269 0.577350269 0.577350269
f 17//17 19//19 18//18
f 17//17 20//20 19//19
f 21//21 22//22 23//23
f 21//21 23//23 24//24
f 17//17 18//18 22//22
f 17//17 22//22 21//21
f 18//18 19//19 23//23
f 18//18 23//23 22//22
f 19//19 20//20 24//24
f 19//19 24//24 23//23
f 20//20 17//17 21//21
f 20//20 21//21 24//24
g east_low_04
v 4940.000000 -4350.000000 34.000000
v 5060.000000 -4350.000000 34.000000
v 5060.000000 -4250.000000 34.000000
v 4940.000000 -4250.000000 34.000000
v 4940.000000 -4350.000000 50.000000
v 5060.000000 -4350.000000 50.000000
v 5060.000000 -4250.000000 50.000000
v 4940.000000 -4250.000000 50.000000
vn -0.577350269 -0.577350269 -0.577350269
vn 0.577350269 -0.577350269 -0.577350269
vn 0.577350269 0.577350269 -0.577350269
vn -0.577350269 0.577350269 -0.577350269
vn -0.577350269 -0.577350269 0.577350269
vn 0.577350269 -0.577350269 0.577350269
vn 0.577350269 0.577350269 0.577350269
vn -0.577350269 0.577350269 0.577350269
f 25//25 27//27 26//26
f 25//25 28//28 27//27
f 29//29 30//30 31//31
f 29//29 31//31 32//32
f 25//25 26//26 30//30
f 25//25 30//30 29//29
f 26//26 27//27 31//31
f 26//26 31//31 30//30
f 27//27 28//28 32//32
f 27//27 32//32 31//31
f 28//28 25//25 29//29
f 28//28 29//29 32//32
g east_highrise_15
v 5430.000000 -4070.000000 35.500000
v 5570.000000 -4070.000000 35.500000
v 5570.000000 -3930.000000 35.500000
v 5430.000000 -3930.000000 35.500000
v 5430.000000 -4070.000000 95.500000
v 5570.000000 -4070.000000 95.500000
v 5570.000000 -3930.000000 95.500000
v 5430.000000 -3930.000000 95.500000
vn -0.577350269 -0.577350269 -0.577350269
vn 0.577350269 -0.577350269 -0.577350269
vn 0.577350269 0.577350269 -0.577350269
vn -0.577350269 0.577350269 -0.577350269
vn -0.577350269 -0.577350269 0.577350269
vn 0.577350269 -0.577350269 0.577350269
vn 0.577350269 0.577350269 0.577350269
vn -0.577350269 0.577350269 0.577350269
f 33//33 35//35 34//34
f 33//33 36//36 35//35
f 37//37 38//38 39//39
f 37//37 39//39 40//40
f 33//33 34//34 38//38
f 33//33 38//38 37//37
f 34//34 35//35 39//39
f 34//34 39//39 38//38
f 35//35 36//36 40//40
f 35//35 40//40 39//39
f 36//36 33//33 37//37
f 36//36 37//37 40//40
g east_medium_09
v 5925.000000 -3760.000000 37.000000
v 6075.000000 -3760.000000 37.000000
v 6075.000000 -3640.000000 37.000000
v 5925.000000 -3640.000000 37.000000
v 5925.000000 -3760.000000 73.000000
v 6075.000000 -3760.000000 73.000000
v 6075.000000 -3640.000000 73.000000
v 5925.000000 -3640.000000 73.000000
vn -0.577350269 -0.577350269 -0.577350269
vn 0.577350269 -0.577350269 -0.577350269
vn 0.577350269 0.577350269 -0.577350269
vn -0.577350269 0.577350269 -0.577350269
vn -0.577350269 -0.577350269 0.577350269
vn 0.577350269 -0.577350269 0.577350269
vn 0.577350269 0.577350269 0.577350269
vn -0.577350269 0.577350269 0.577350269
f 41//41 43//43 42//42
f 41//41 44//44 43//43
f 45//45 46//46 47//47
f 45//45 47//47 48//48
f 41//41 42//42 46//46
f 41//41 46//46 45//45
f 42//42 43//43 47//47
f 42//42 47//47 46//46
f 43//43 44//44 48//48
f 43//43 48//48 47//47
f 44//44 41//41 45//45
f 44//44 45//45 48//48
