# AMS M4 canonical 20 km x 10 km triangulated terrain
o canonical_terrain
v -10000.000000 -5000.000000 0.000000
v -5000.000000 -5000.000000 20.000000
v 0.000000 -5000.000000 30.000000
v 5000.000000 -5000.000000 20.000000
v 10000.000000 -5000.000000 0.000000
v -10000.000000 -2500.000000 20.000000
v -5000.000000 -2500.000000 60.000000
v 0.000000 -2500.000000 120.000000
v 5000.000000 -2500.000000 70.000000
v 10000.000000 -2500.000000 25.000000
v -10000.000000 0.000000 30.000000
v -5000.000000 0.000000 100.000000
v 0.000000 0.000000 180.000000
v 5000.000000 0.000000 110.000000
v 10000.000000 0.000000 40.000000
v -10000.000000 2500.000000 15.000000
v -5000.000000 2500.000000 55.000000
v 0.000000 2500.000000 130.000000
v 5000.000000 2500.000000 65.000000
v 10000.000000 2500.000000 20.000000
v -10000.000000 5000.000000 0.000000
v -5000.000000 5000.000000 15.000000
v 0.000000 5000.000000 25.000000
v 5000.000000 5000.000000 10.000000
v 10000.000000 5000.000000 0.000000
vn 0.000000 0.000000 1.000000
vn 0.000000 0.000000 1.000000
vn 0.000000 0.000000 1.000000
vn 0.000000 0.000000 1.000000
vn 0.000000 0.000000 1.000000
vn 0.000000 0.000000 1.000000
vn 0.000000 0.000000 1.000000
vn 0.000000 0.000000 1.000000
vn 0.000000 0.000000 1.000000
vn 0.000000 0.000000 1.000000
vn 0.000000 0.000000 1.000000
vn 0.000000 0.000000 1.000000
vn 0.000000 0.000000 1.000000
vn 0.000000 0.000000 1.000000
vn 0.000000 0.000000 1.000000
vn 0.000000 0.000000 1.000000
vn 0.000000 0.000000 1.000000
vn 0.000000 0.000000 1.000000
vn 0.000000 0.000000 1.000000
vn 0.000000 0.000000 1.000000
vn 0.000000 0.000000 1.000000
vn 0.000000 0.000000 1.000000
vn 0.000000 0.000000 1.000000
vn 0.000000 0.000000 1.000000
vn 0.000000 0.000000 1.000000
f 1//1 2//2 7//7
f 1//1 7//7 6//6
f 2//2 3//3 8//8
f 2//2 8//8 7//7
f 3//3 4//4 9//9
f 3//3 9//9 8//8
f 4//4 5//5 10//10
f 4//4 10//10 9//9
f 6//6 7//7 12//12
f 6//6 12//12 11//11
f 7//7 8//8 13//13
f 7//7 13//13 12//12
f 8//8 9//9 14//14
f 8//8 14//14 13//13
f 9//9 10//10 15//15
f 9//9 15//15 14//14
f 11//11 12//12 17//17
f 11//11 17//17 16//16
f 12//12 13//13 18//18
f 12//12 18//18 17//17
f 13//13 14//14 19//19
f 13//13 19//19 18//18
f 14//14 15//15 20//20
f 14//14 20//20 19//19
f 16//16 17//17 22//22
f 16//16 22//22 21//21
f 17//17 18//18 23//23
f 17//17 23//23 22//22
f 18//18 19//19 24//24
f 18//18 24//24 23//23
f 19//19 20//20 25//25
f 19//19 25//25 24//24
